<svg xmlns="http://www.w3.org/2000/svg" width="480" height="90" viewBox="-10 14 470 90" fill="none">
  <g stroke="#FFFFFF" stroke-width="5.5" stroke-linecap="round">
    <line x1="-1" y1="51" x2="33" y2="51"></line><line x1="7" y1="60.5" x2="33" y2="60.5"></line><line x1="15" y1="70" x2="33" y2="70"></line>
  </g>
  <g stroke="#FFFFFF" stroke-width="2.6" opacity="0.4"><line x1="76" y1="60" x2="70.7" y2="26.4"></line><line x1="76" y1="60" x2="102.8" y2="80.9"></line></g>
  <circle cx="76" cy="60" r="34" stroke="#FFFFFF" stroke-width="6"></circle>
  <circle cx="102.8" cy="80.9" r="7" fill="#FFFFFF"></circle>
  <circle cx="76" cy="60" r="10" fill="#FFFFFF"></circle>
  <circle cx="70.7" cy="26.4" r="8.5" fill="#1EC8E0"></circle>
  <path d="M152.93 80.98L152.93 80.98Q147.75 80.98 143.80 78.78Q139.84 76.57 137.63 72.55Q135.43 68.52 135.43 63.13L135.43 63.13L135.43 62.29Q135.43 56.83 137.60 52.84Q139.77 48.85 143.69 46.64Q147.61 44.44 152.72 44.44L152.72 44.44Q157.76 44.44 161.54 46.64Q165.32 48.85 167.42 52.84Q169.52 56.83 169.52 62.15L169.52 62.15L169.52 65.02L143.55 65.02Q143.69 69.08 146.42 71.53Q149.15 73.98 153.14 73.98L153.14 73.98Q157.06 73.98 158.95 72.27Q160.84 70.55 161.82 68.38L161.82 68.38L168.47 71.81Q167.49 73.70 165.63 75.83Q163.78 77.97 160.70 79.47Q157.62 80.98 152.93 80.98ZM143.62 58.93L143.62 58.93L161.33 58.93Q161.05 55.50 158.71 53.47Q156.36 51.44 152.65 51.44L152.65 51.44Q148.80 51.44 146.49 53.47Q144.18 55.50 143.62 58.93ZM194.93 80L182.19 80L170.85 45.42L179.39 45.42L187.93 74.12L189.12 74.12L197.73 45.42L206.27 45.42L194.93 80ZM225.38 80.98L225.38 80.98Q220.20 80.98 216.25 78.78Q212.29 76.57 210.09 72.55Q207.88 68.52 207.88 63.13L207.88 63.13L207.88 62.29Q207.88 56.83 210.05 52.84Q212.22 48.85 216.14 46.64Q220.06 44.44 225.17 44.44L225.17 44.44Q230.21 44.44 233.99 46.64Q237.77 48.85 239.87 52.84Q241.97 56.83 241.97 62.15L241.97 62.15L241.97 65.02L216.00 65.02Q216.14 69.08 218.87 71.53Q221.60 73.98 225.59 73.98L225.59 73.98Q229.51 73.98 231.40 72.27Q233.29 70.55 234.27 68.38L234.27 68.38L240.92 71.81Q239.94 73.70 238.09 75.83Q236.23 77.97 233.15 79.47Q230.07 80.98 225.38 80.98ZM216.07 58.93L216.07 58.93L233.78 58.93Q233.50 55.50 231.16 53.47Q228.81 51.44 225.10 51.44L225.10 51.44Q221.25 51.44 218.94 53.47Q216.63 55.50 216.07 58.93ZM256.18 94L248.13 94L248.13 45.42L256.04 45.42L256.04 49.97L257.23 49.97Q258.42 47.80 261.05 46.12Q263.67 44.44 268.57 44.44L268.57 44.44Q272.77 44.44 276.38 46.50Q279.98 48.57 282.15 52.56Q284.32 56.55 284.32 62.15L284.32 62.15L284.32 63.27Q284.32 68.87 282.15 72.86Q279.98 76.85 276.41 78.92Q272.84 80.98 268.57 80.98L268.57 80.98Q265.28 80.98 263.07 80.21Q260.87 79.44 259.50 78.18Q258.14 76.92 257.37 75.66L257.37 75.66L256.18 75.66L256.18 94ZM266.19 73.98L266.19 73.98Q270.60 73.98 273.44 71.14Q276.27 68.31 276.27 63.06L276.27 63.06L276.27 62.36Q276.27 57.04 273.40 54.24Q270.53 51.44 266.19 51.44L266.19 51.44Q261.85 51.44 258.94 54.24Q256.04 57.04 256.04 62.36L256.04 62.36L256.04 63.06Q256.04 68.31 258.94 71.14Q261.85 73.98 266.19 73.98ZM298.81 80L290.76 80L290.76 45.42L298.81 45.42L298.81 80ZM294.75 41.01L294.75 41.01Q292.58 41.01 291.00 39.57Q289.43 38.14 289.43 35.76L289.43 35.76Q289.43 33.38 291.00 31.94Q292.58 30.51 294.75 30.51L294.75 30.51Q297.06 30.51 298.56 31.94Q300.07 33.38 300.07 35.76L300.07 35.76Q300.07 38.14 298.56 39.57Q297.06 41.01 294.75 41.01ZM314.98 80L306.93 80L306.93 31.00L314.98 31.00L314.98 80ZM339.48 80.98L339.48 80.98Q334.30 80.98 330.20 78.84Q326.11 76.71 323.76 72.75Q321.42 68.80 321.42 63.27L321.42 63.27L321.42 62.15Q321.42 56.62 323.76 52.63Q326.11 48.64 330.20 46.54Q334.30 44.44 339.48 44.44L339.48 44.44Q344.66 44.44 348.72 46.54Q352.78 48.64 355.12 52.63Q357.47 56.62 357.47 62.15L357.47 62.15L357.47 63.27Q357.47 68.80 355.12 72.75Q352.78 76.71 348.72 78.84Q344.66 80.98 339.48 80.98ZM339.48 73.84L339.48 73.84Q343.89 73.84 346.69 71.00Q349.49 68.17 349.49 63.06L349.49 63.06L349.49 62.36Q349.49 57.25 346.69 54.41Q343.89 51.58 339.48 51.58L339.48 51.58Q335.07 51.58 332.27 54.41Q329.47 57.25 329.47 62.36L329.47 62.36L329.47 63.06Q329.47 68.17 332.27 71.00Q335.07 73.84 339.48 73.84ZM385.47 80L375.88 80Q372.52 80 370.52 78.00Q368.53 76.01 368.53 72.58L368.53 72.58L368.53 52.07L359.50 52.07L359.50 45.42L368.53 45.42L368.53 34.29L376.58 34.29L376.58 45.42L386.52 45.42L386.52 52.07L376.58 52.07L376.58 71.25Q376.58 73.35 378.54 73.35L378.54 73.35L385.47 73.35L385.47 80Z" fill="#FFFFFF"></path>
</svg>